<svg width="355" height="100" viewBox="0 0 355 100" fill="none" xmlns="http://www.w3.org/2000/svg">
<rect width="26.5934" height="73.4066" fill="#2A9D8F"/>
<rect x="73.4066" width="26.5934" height="73.4066" transform="rotate(90 73.4066 0)" fill="#2A9D8F"/>
<rect x="100" y="100" width="26.5934" height="73.4066" transform="rotate(-180 100 100)" fill="#2A9D8F"/>
<rect x="26.5934" y="100" width="26.5934" height="73.4066" transform="rotate(-90 26.5934 100)" fill="#2A9D8F"/>
<path d="M132.06 77V28H151.8C161.95 28 169.02 34.93 169.02 43.96C169.02 53.06 161.95 59.99 151.8 59.99H141.16V77H132.06ZM141.16 52.71H150.89C156.07 52.71 159.78 49.07 159.78 43.96C159.78 38.85 156.07 35.21 150.89 35.21H141.16V52.71ZM175.537 77V28H184.637V69.51H207.387V77H175.537ZM232.135 77.98C219.675 77.98 211.345 69.93 211.345 57.89V28H220.515V57.61C220.515 65.17 224.925 69.86 232.135 69.86C239.345 69.86 243.825 65.17 243.825 57.61V28H252.995V57.89C252.995 69.93 244.665 77.98 232.135 77.98ZM273.944 77V35.7H258.964V28H298.094V35.7H283.114V77H273.944ZM325.748 78.4C311.188 78.4 300.478 67.48 300.478 52.5C300.478 37.52 311.188 26.6 325.748 26.6C340.308 26.6 351.018 37.52 351.018 52.5C351.018 67.48 340.308 78.4 325.748 78.4ZM309.718 52.5C309.718 62.72 316.508 70.28 325.748 70.28C335.058 70.28 341.778 62.72 341.778 52.5C341.778 42.14 335.058 34.65 325.748 34.65C316.508 34.65 309.718 42.14 309.718 52.5Z" fill="#2A9D8F"/>
</svg>
