<svg width="359" height="108" viewBox="0 0 359 108" fill="none" xmlns="http://www.w3.org/2000/svg">
<g filter="url(#filter0_d_87_279)">
<rect x="4" width="26.5934" height="73.4066" fill="#F4A261"/>
<rect x="77.4065" width="26.5934" height="73.4066" transform="rotate(90 77.4065 0)" fill="#F4A261"/>
<rect x="104" y="100" width="26.5934" height="73.4066" transform="rotate(-180 104 100)" fill="#F4A261"/>
<rect x="30.5935" y="100" width="26.5934" height="73.4066" transform="rotate(-90 30.5935 100)" fill="#F4A261"/>
</g>
<path d="M136.06 77V28H155.8C165.95 28 173.02 34.93 173.02 43.96C173.02 53.06 165.95 59.99 155.8 59.99H145.16V77H136.06ZM145.16 52.71H154.89C160.07 52.71 163.78 49.07 163.78 43.96C163.78 38.85 160.07 35.21 154.89 35.21H145.16V52.71ZM179.537 77V28H188.637V69.51H211.387V77H179.537ZM236.135 77.98C223.675 77.98 215.345 69.93 215.345 57.89V28H224.515V57.61C224.515 65.17 228.925 69.86 236.135 69.86C243.345 69.86 247.825 65.17 247.825 57.61V28H256.995V57.89C256.995 69.93 248.665 77.98 236.135 77.98ZM277.944 77V35.7H262.964V28H302.094V35.7H287.114V77H277.944ZM329.748 78.4C315.188 78.4 304.478 67.48 304.478 52.5C304.478 37.52 315.188 26.6 329.748 26.6C344.308 26.6 355.018 37.52 355.018 52.5C355.018 67.48 344.308 78.4 329.748 78.4ZM313.718 52.5C313.718 62.72 320.508 70.28 329.748 70.28C339.058 70.28 345.778 62.72 345.778 52.5C345.778 42.14 339.058 34.65 329.748 34.65C320.508 34.65 313.718 42.14 313.718 52.5Z" fill="#F4A261"/>
<defs>
<filter id="filter0_d_87_279" x="0" y="0" width="108" height="108" filterUnits="userSpaceOnUse" color-interpolation-filters="sRGB">
<feFlood flood-opacity="0" result="BackgroundImageFix"/>
<feColorMatrix in="SourceAlpha" type="matrix" values="0 0 0 0 0 0 0 0 0 0 0 0 0 0 0 0 0 0 127 0" result="hardAlpha"/>
<feOffset dy="4"/>
<feGaussianBlur stdDeviation="2"/>
<feComposite in2="hardAlpha" operator="out"/>
<feColorMatrix type="matrix" values="0 0 0 0 0 0 0 0 0 0 0 0 0 0 0 0 0 0 0.25 0"/>
<feBlend mode="normal" in2="BackgroundImageFix" result="effect1_dropShadow_87_279"/>
<feBlend mode="normal" in="SourceGraphic" in2="effect1_dropShadow_87_279" result="shape"/>
</filter>
</defs>
</svg>
